#!OML:ASF H:\Terrain\Patient Classification 1\Walking\liu\liu.ASF
:FULLY-SPECIFIED
:DEGREES
340
root 9.401290 16.632700 12.018100 5.709500 11.068600 -0.950236
lowerback -7.005020 -5.046041 -2.462581
upperback -1.592558 -6.652250 3.560227
thorax 2.908114 -3.350314 4.461194
lowerneck -22.327581 -5.776551 -14.107280
upperneck 23.566950 -7.529907 15.070660
head 12.390180 -2.818233 6.758202
rclavicle -0.000000 -0.000000
rhumerus -50.846291 5.143798 -89.322861
rradius 33.387421
rwrist -16.737160
rhand -29.546991 -32.278950
rfingers 7.837522
rthumb -0.314311 -65.256401
lclavicle -0.000000 -0.000000
lhumerus -31.647551 -24.973631 111.509201
lradius 28.571732
lwrist 4.420031
lhand -12.528560 -26.546301
lfingers 7.837522
lthumb 16.109720 5.862835
rfemur -38.077271 1.047188 25.795551
rtibia 45.153351
rfoot -12.798059 2.214344
rtoes -14.285151
lfemur 10.598467 6.910123 -12.819401
ltibia 42.403240
lfoot 12.962510 0.701160
ltoes -15.262610
341
root 9.362700 16.662201 12.162900 5.715260 10.753400 -1.442570
lowerback -6.752658 -4.802204 -2.334387
upperback -1.738066 -6.340576 3.774342
thorax 2.598574 -3.189175 4.669566
lowerneck -21.800461 -5.919859 -14.472700
upperneck 23.118811 -7.749060 15.500430
head 12.191740 -2.918982 6.933289
rclavicle -0.000000 -0.000000
rhumerus -50.776993 5.329104 -89.382813
rradius 33.965580
rwrist -17.737720
rhand -30.651501 -30.595291
rfingers 7.837522
rthumb -1.381050 -63.568893
lclavicle -0.000000 -0.000000
lhumerus -31.922661 -23.701811 111.232002
lradius 27.429710
lwrist 3.753596
lhand -12.087350 -25.751329
lfingers 7.837522
lthumb 16.534760 6.626477
rfemur -37.299679 2.410628 26.455000
rtibia 44.758339
rfoot -13.547161 1.522037
rtoes -13.809731
lfemur 8.573158 7.287489 -12.148621
ltibia 45.565849
lfoot 13.577741 1.574903
ltoes -14.651890
342
root 9.345100 16.700300 12.306600 5.901440 10.458600 -1.412250
lowerback -6.833145 -4.558763 -2.462702
upperback -1.680866 -6.007210 3.723951
thorax 2.678566 -3.025187 4.713104
lowerneck -21.843250 -6.063156 -14.659261
upperneck 22.781441 -7.930571 15.797100
head 12.127831 -2.982507 7.036546
rclavicle 0.000000 -0.000000
rhumerus -50.314114 5.303716 -89.426041
rradius 34.430332
rwrist -18.382650
rhand -31.677252 -26.876190
rfingers 7.837522
rthumb -2.371787 -59.841869
lclavicle 0.000000 -0.000000
lhumerus -31.924532 -22.874722 110.804108
lradius 26.518692
lwrist 3.332615
lhand -11.471020 -24.698631
lfingers 7.837522
lthumb 17.128429 7.633868
rfemur -36.765518 2.850991 26.616041
rtibia 44.396660
rfoot -13.854501 1.451450
rtoes -13.744280
lfemur 6.620680 7.668958 -12.285789
ltibia 48.459621
lfoot 13.480500 2.927254
ltoes -13.003540
343
root 9.338850 16.742001 12.449600 6.052830 10.659800 -1.132990
lowerback -6.972537 -4.522001 -2.650494
upperback -1.548008 -5.942475 3.554859
thorax 2.888303 -2.998215 4.633365
lowerneck -22.228580 -6.185432 -14.691710
upperneck 22.850851 -8.052968 15.794241
head 12.250040 -3.026474 7.023786
rclavicle 0.000000 0.000000
rhumerus -49.755749 5.367758 -89.515472
rradius 34.846241
rwrist -19.029230
rhand -31.411930 -24.691589
rfingers 7.837522
rthumb -2.115520 -57.659801
lclavicle 0.000000 0.000000
lhumerus -31.938942 -22.499069 110.435608
lradius 25.628901
lwrist 3.391685
lhand -11.400400 -24.078779
lfingers 7.837522
lthumb 17.196409 8.248394
rfemur -36.005863 2.386857 26.497902
rtibia 43.832909
rfoot -14.135880 1.720928
rtoes -14.044910
lfemur 4.612366 7.510206 -12.813680
ltibia 51.363510
lfoot 12.042030 4.865191
ltoes -13.628231
